<svg id="Слой_1" data-name="Слой 1" xmlns="http://www.w3.org/2000/svg" viewBox="0 0 360.92 72.43"><title>eplace</title><text transform="translate(83.58 56.01)" style="font-size:59.28826904296875px;fill:#fff;font-family:Days">EPLACE</text><path d="M36.45,1.57C16.54,1.57.4,17.24.4,36.57a34,34,0,0,0,.52,5.92,38.15,38.15,0,0,0,21.26,6.34c19.14,0,34.79-13.62,36-30.83,0,.69.08,1.39.08,2.1C58.24,38.29,42.1,53,22.18,53a38.3,38.3,0,0,1-20-5.53,36.28,36.28,0,0,0,1.52,3.75,38.4,38.4,0,0,0,19.33,5.14c17.93,0,32.79-12,35.58-27.62-.89,17.47-16.67,31.39-36,31.39A38.73,38.73,0,0,1,7.18,57a38,38,0,0,0,3.15,3.68A38.9,38.9,0,0,0,23.91,63.1c14.63,0,27.22-8,32.87-19.41-4.38,13.68-18.2,23.68-34.6,23.68-1,0-2.07-.05-3.1-.13a36.79,36.79,0,0,0,17.37,4.33c19.91,0,36.05-15.67,36.05-35S56.36,1.57,36.45,1.57Z" transform="translate(-0.4 -1.57)" style="fill:#fff"/></svg>