<svg height="512" width="512" xmlns="http://www.w3.org/2000/svg"><path d="M461.208 196.807l-60.715 50.307 29.226 55.204a14.999 14.999 0 0023.863 3.588l21.213-21.213a15 15 0 003.985-14.081zm27.729-173.744C473.301 7.427 451.665-.948 429.577.085c-22.088 1.033-42.848 11.391-56.955 28.418L237.286 191.839l-31.647-13.563a15 15 0 00-16.516 3.18l-31.82 31.82a15 15 0 004.699 24.394l34.083 14.607-25.521 25.521-3.536-3.536c-5.858-5.858-15.355-5.858-21.213 0L4.394 415.682a15.002 15.002 0 00-3.548 15.572 14.998 14.998 0 0012.498 9.943l51.713 5.746 5.746 51.713a14.988 14.988 0 004.303 8.951 15.003 15.003 0 0021.212-.001l141.421-141.421c5.858-5.858 5.858-15.355 0-21.213l-3.536-3.536 25.521-25.521 14.607 34.083a15.003 15.003 0 0010.951 8.821 14.998 14.998 0 0013.443-4.122l31.82-31.82a15 15 0 003.18-16.516l-13.563-31.647 163.334-135.335c17.028-14.108 27.385-34.868 28.419-56.956 1.033-22.087-7.343-43.724-22.978-59.36zm-328.98 350.193l-28.284 28.284c-5.858 5.858-15.355 5.858-21.213 0s-5.858-15.355 0-21.213l28.284-28.284c5.858-5.858 15.355-5.858 21.213 0s5.858 15.355 0 21.213zm53.034-53.033l-21.214-21.214 34.006-34.006 14.85 6.364 6.364 14.85zm-6.896-240.591a14.992 14.992 0 003.587 2.649l55.204 29.226 50.307-60.715-73.805-17.572a15 15 0 00-14.081 3.985l-21.213 21.213a15 15 0 00.001 21.214z"/></svg>