<svg id="Слой_1" data-name="Слой 1" xmlns="http://www.w3.org/2000/svg" viewBox="0 0 360.92 72.43"><text transform="translate(83.58 56.01)" font-size="59.288" fill="#fff" font-family="Days">EPLACE</text><path d="M36.45 1.57C16.54 1.57.4 17.24.4 36.57a34 34 0 00.52 5.92 38.15 38.15 0 0021.26 6.34c19.14 0 34.79-13.62 36-30.83 0 .69.08 1.39.08 2.1C58.24 38.29 42.1 53 22.18 53a38.3 38.3 0 01-20-5.53 36.28 36.28 0 001.52 3.75 38.4 38.4 0 0019.33 5.14c17.93 0 32.79-12 35.58-27.62-.89 17.47-16.67 31.39-36 31.39A38.73 38.73 0 017.18 57a38 38 0 003.15 3.68 38.9 38.9 0 0013.58 2.42c14.63 0 27.22-8 32.87-19.41-4.38 13.68-18.2 23.68-34.6 23.68-1 0-2.07-.05-3.1-.13a36.79 36.79 0 0017.37 4.33c19.91 0 36.05-15.67 36.05-35s-16.14-35-36.05-35z" transform="translate(-.4 -1.57)" fill="#fff"/></svg>