<svg version="1.1" id="Capa_1" xmlns="http://www.w3.org/2000/svg" x="0" y="0" viewBox="0 0 513.164 513.164" xml:space="preserve"><path d="M292.073 361.051L152.436 221.414l114.036-114.036c54.692-54.691 124.51-90.764 200.146-103.564L487.563.323h3.491A20.858 20.858 0 01512 21.269v3.491l-2.327 22.109c-12.8 75.636-48.873 145.455-102.4 198.982l-115.2 115.2z" fill="#d5e3ef"/><path d="M417.745 153.923l-166.4 166.4 40.727 40.727 114.036-114.036c54.691-54.691 89.6-123.345 102.4-198.982l4.655-22.109v-3.491c0-5.818-2.327-10.473-5.818-13.964-17.454 53.528-47.709 103.564-89.6 145.455z" fill="#b0c4d9"/><path d="M297.891 471.596c-6.982-6.982-18.618-6.982-25.6 0-9.309 9.309-15.127 38.4-16.291 39.564v1.164s1.164 1.164 1.164 0c1.164 0 29.091-5.818 39.564-16.291 9.308-6.982 9.308-17.455 1.163-24.437zm-256-256c-6.982-6.982-18.618-6.982-25.6 0-9.309 9.309-15.127 37.236-15.127 38.4v1.164s1.164 1.164 1.164 0c1.164 0 29.091-5.818 39.564-16.291 8.144-5.818 8.144-16.291-.001-23.273zm82.618 173.382c-20.945-20.945-55.855-20.945-76.8 0C18.618 418.069 1.164 503.014 0 506.505c0 2.327 0 3.491 1.164 4.655 2.327 1.164 4.655 1.164 6.982 1.164 3.491-1.164 88.436-17.455 117.527-47.709 20.945-20.946 20.945-54.692-1.164-75.637z" fill="#f79548"/><path d="M121.018 390.141c-10.473-10.473-27.927-10.473-38.4 0-15.127 15.127-23.273 57.018-23.273 58.182 0 1.164 0 2.327 1.164 2.327 1.164 1.164 1.164 1.164 2.327 1.164 2.327 0 44.218-9.309 58.182-23.273 10.473-10.472 10.473-27.927 0-38.4z" fill="#fcbb76"/><path fill="#99b4cd" d="M303.709 419.232L268.8 384.323l69.818-69.818v69.818z"/><path d="M300.218 376.178l22.109-22.109c10.473-10.473 16.291-24.436 16.291-39.564L268.8 384.323l34.909 34.909 11.636-11.636-15.127-15.127c-4.654-4.655-4.654-11.637 0-16.291z" fill="#6c9abb"/><path d="M326.982 489.051l-46.545-46.545 83.782-83.782c5.818-5.818 13.964-9.309 23.273-9.309 18.618 0 32.582 15.127 32.582 32.582 0 9.309-3.491 17.455-9.309 23.273l-83.783 83.781z" fill="#d5e3ef"/><path d="M410.764 381.996l-83.782 83.782-34.909-34.909-11.636 11.636 46.545 46.545 83.782-83.782c5.818-5.818 9.309-13.964 9.309-23.273 0-4.655-1.164-8.145-2.327-11.636-1.164 4.655-3.491 8.146-6.982 11.637z" fill="#b0c4d9"/><path d="M94.255 326.141c8.145-8.145 17.455-13.964 26.764-16.291l19.782-6.982 69.818 69.818-6.982 19.782c-3.491 10.473-9.309 19.782-16.291 26.764l-93.091-93.091z" fill="#99b4cd"/><path d="M140.8 302.869l-17.455 5.818 38.4 38.4c9.309 9.309 11.636 22.109 8.145 33.745-1.164 4.655-3.491 9.309-6.982 13.964l24.436 24.436c8.145-8.145 13.964-17.455 16.291-26.764l6.982-19.782-69.817-69.817z" fill="#6c9abb"/><path fill="#99b4cd" d="M94.255 209.778l34.909 34.909 69.818-69.818h-69.818z"/><path d="M125.673 217.923c-4.655-4.655-4.655-11.636 0-16.291l26.764-26.764h-23.273l-34.909 34.909 34.909 34.909c6.982-6.982 6.982-16.291 0-23.273l-3.491-3.49z" fill="#6c9abb"/><path d="M24.436 186.505l46.545 46.545 83.782-83.782c5.818-5.818 9.309-13.964 9.309-23.273 0-17.455-15.127-32.582-32.582-32.582-9.309 0-17.455 3.491-23.273 9.309l-83.781 83.783z" fill="#d5e3ef"/><circle cx="326.982" cy="186.505" r="46.545" fill="#70b7e5"/><path d="M326.982 244.687c-32.582 0-58.182-25.6-58.182-58.182s25.6-58.182 58.182-58.182 58.182 25.6 58.182 58.182-25.6 58.182-58.182 58.182zm0-93.091c-19.782 0-34.909 15.127-34.909 34.909s15.127 34.909 34.909 34.909 34.909-15.127 34.909-34.909-15.127-34.909-34.909-34.909z" fill="#f04b4d"/><path d="M308.364 216.76c-3.491-5.818-4.655-11.636-4.655-18.618 0-19.782 15.127-34.909 34.909-34.909 6.982 0 12.8 2.327 18.618 4.655-6.982-9.309-17.455-16.291-30.255-16.291-19.782 0-34.909 15.127-34.909 34.909.001 12.799 6.983 23.272 16.292 30.254z" fill="#4c9cd6"/><path d="M292.073 361.051l-38.4 38.4c-4.655 4.655-11.636 4.655-16.291 0L114.036 276.105c-4.655-4.655-4.655-11.636 0-16.291l38.4-38.4 139.637 139.637z" fill="#f04d4e"/><path d="M205.964 333.123l-73.309-73.309c-4.655-4.655-12.8-4.655-18.618 0-4.655 4.655-4.655 11.636 0 16.291L237.382 399.45c4.655 4.655 11.636 4.655 16.291 0l38.4-38.4-40.727-40.727-12.8 12.8c-9.31 9.309-23.273 9.309-32.582 0z" fill="#db343f"/><path transform="rotate(134.999 321.561 448.737)" fill="#f04d4e" d="M297.123 415.573h48.872V481.9h-48.872z"/><path d="M350.255 442.505l-16.291 16.291c-6.982 6.982-16.291 6.982-23.273 0l-23.273-23.273-6.982 6.982 46.545 46.545 34.909-34.909-11.635-11.636z" fill="#db343f"/><path d="M198.982 215.596c-1.164 0-3.491 0-4.655-1.164-2.327-2.327-2.327-5.818 0-8.145l58.182-58.182c2.327-2.327 5.818-2.327 8.145 0s2.327 5.818 0 8.145l-58.182 58.182c.001 1.164-2.327 1.164-3.49 1.164zm81.454-81.455c-1.164 0-3.491 0-4.655-1.164-2.327-2.327-2.327-5.818 0-8.145l23.273-23.273c2.327-2.327 5.818-2.327 8.145 0s2.327 5.818 0 8.145l-23.273 23.273c.001 1.164-2.326 1.164-3.49 1.164z" fill="#ecf0f9"/><path d="M492.218.323h-3.491l-22.109 3.491c-36.073 5.818-69.818 17.455-102.4 33.745l55.855 55.855 55.855 55.855c16.291-32.582 26.764-66.327 33.745-102.4l3.491-20.945v-3.491c0-12.801-9.309-22.11-20.946-22.11z" fill="#f04d4e"/><path d="M408.436 48.032c-2.327 0-4.655-1.164-5.818-3.491-1.164-3.491 0-5.818 3.491-6.982 23.273-9.309 46.545-15.127 70.982-19.782 3.491 0 5.818 1.164 6.982 4.655 0 3.491-1.164 5.818-4.655 6.982-23.273 3.491-46.545 10.473-68.655 18.618h-2.327zm-81.454 81.455v-1.164c-32.582 0-58.182 25.6-58.182 58.182h1.164c5.818 0 10.473-3.491 11.636-9.309 1.164-8.145 5.818-15.127 10.473-20.945 6.982-6.982 15.127-12.8 25.6-15.127 5.818-1.164 9.309-5.819 9.309-11.637z" fill="#f26a56"/><path d="M326.982 243.523v1.164c32.582 0 58.182-25.6 58.182-58.182H384c-5.818 0-10.473 3.491-11.636 9.309-1.164 8.145-5.818 15.127-10.473 20.945-6.982 6.982-15.127 12.8-25.6 15.127-5.818 1.165-9.309 5.819-9.309 11.637z" fill="#db343f"/><path d="M350.255 401.778c-1.164 0-3.491 0-4.655-1.164-2.327-2.327-2.327-5.818 0-8.145l23.273-23.273c2.327-2.327 5.818-2.327 8.145 0s2.327 5.818 0 8.145l-23.273 23.273c0 1.164-2.327 1.164-3.49 1.164z" fill="#ecf0f9"/><path d="M154.764 125.996l-83.782 83.782-34.909-34.909-11.636 11.636 46.545 46.545 83.782-83.782c5.818-5.818 9.309-13.964 9.309-23.273 0-4.655-1.164-8.145-2.327-11.636-1.164 4.655-3.491 8.146-6.982 11.637z" fill="#b0c4d9"/><path d="M94.255 145.778c-1.164 0-3.491 0-4.655-1.164-2.327-2.327-2.327-5.818 0-8.145l23.273-23.273c2.327-2.327 5.818-2.327 8.145 0s2.327 5.818 0 8.145l-23.273 23.273c0 1.164-2.327 1.164-3.49 1.164z" fill="#ecf0f9"/><path transform="rotate(134.999 65.532 192.737)" fill="#f04d4e" d="M41.095 159.572h48.872v66.327H41.095z"/><path d="M94.255 186.505l-16.291 16.291c-6.982 6.982-16.291 6.982-23.273 0l-23.273-23.273-6.982 6.982 46.545 46.545 34.909-34.909-11.635-11.636zm352.581-66.327l29.091 29.091c16.291-32.582 26.764-66.327 33.745-102.4l3.491-20.945v-3.491c0-5.818-2.327-10.473-5.818-13.964-12.8 39.563-33.745 77.963-60.509 111.709z" fill="#db343f"/></svg>