<svg version="1.1" id="Layer_1" xmlns="http://www.w3.org/2000/svg" x="0" y="0" viewBox="0 0 809.4 787.8" xml:space="preserve"><style>.stx{fill:none}.st0{fill:#3597ec}.st1{fill:rgba(53,151,236,.25)}.st2{fill:rgba(53,151,236,.5)}</style><g id="Pic" transform="translate(-629 181)"><g id="picture" transform="translate(0 -1)"><path id="Polygon_32" class="st0" d="M1095.6-123.6c33.6-75.2 140.4-75.2 174 0l1.1 2.4c13.5 30.2 41.7 51.3 74.5 55.6l10.2 1.4c78.6 10.4 110.9 106.7 54.4 162.4l-13.7 13.5c-22.4 22.1-32.5 53.9-26.8 84.9l2.6 14.2c14.6 79.9-71.2 140.3-141.5 99.6-29.5-17.1-66-17.1-95.5 0-70.3 40.7-156.1-19.6-141.5-99.6l2.6-14.2c5.6-31-4.4-62.8-26.8-84.9l-13.7-13.5c-56.5-55.7-24.2-152 54.4-162.4l10.2-1.4c32.8-4.3 61-25.4 74.5-55.6l1-2.4z"/><path id="Polygon_34" class="st1" d="M1154.2 232.7c60.9-23.3 120.6 36.5 97.3 97.3l-.7 1.9c-9.3 24.5-5.3 52 10.6 72.8l5 6.5c38.2 49.8 2.4 121.7-60.4 121.3l-15.3-.1c-24.9-.2-48.3 12-62.5 32.5l-6.5 9.4c-36.6 52.9-118.3 38.6-134.8-23.5-7-26.1-27.3-46.5-53.4-53.4-62.1-16.6-76.3-98.3-23.5-134.8l9.4-6.5c20.5-14.2 32.7-37.6 32.5-62.5l-.1-15.3c-.4-62.7 71.5-98.5 121.3-60.4l6.5 5c20.8 15.9 48.3 19.9 72.8 10.6l1.8-.8z"/><path id="Polygon_33" class="st2" d="M1001.6 115.3c59.5 26.6 59.5 111.1 0 137.7l-1.9.8c-23.9 10.7-40.6 33-44 59l-1.1 8.1c-8.2 62.2-84.4 87.7-128.4 43.1l-10.7-10.9c-17.5-17.8-42.7-25.7-67.2-21.2L737 334c-63.2 11.5-110.9-56.3-78.7-111.9 13.5-23.4 13.5-52.2 0-75.5C626.1 90.8 673.8 23 737.1 34.5l11.3 2.1C772.9 41 798 33 815.5 15.3l10.7-10.9c44-44.7 120.2-19.1 128.4 43.1l1.1 8.1c3.4 26 20.1 48.3 44 59l1.9.7z"/></g><g id="picture-2" transform="translate(-19)"><g id="Polygon_32-2"><path class="stx" d="M207.6 56.4c33.6-75.2 140.4-75.2 174 0l1.1 2.4c13.5 30.2 41.7 51.3 74.5 55.6l10.2 1.4c78.6 10.4 110.9 106.7 54.4 162.4l-13.7 13.5c-22.4 22.1-32.5 53.9-26.8 84.9l2.6 14.2c14.6 79.9-71.2 140.3-141.5 99.6-29.5-17.1-66-17.1-95.5 0-70.3 40.7-156.1-19.6-141.5-99.6l2.6-14.2c5.6-31-4.4-62.8-26.8-84.9l-13.7-13.5c-56.5-55.7-24.2-152 54.4-162.4l10.2-1.4c32.8-4.3 61-25.4 74.5-55.6l1-2.4z" transform="translate(888 -180)"/><path class="st0" d="M294.6 1c-8.7 0-17.4 1.2-25.8 3.5-8.5 2.4-16.6 5.9-24.1 10.5C237 19.8 230 25.6 224 32.4c-6.3 7.2-11.5 15.4-15.6 24.4l-1.1 2.4c-3.4 7.5-7.7 14.6-12.9 21-5.1 6.3-11 12-17.5 16.9-6.5 4.9-13.6 8.9-21.1 12-7.6 3.1-15.7 5.3-23.8 6.3l-10.2 1.4c-9.5 1.3-18.5 3.8-27 7.6-8 3.6-15.5 8.4-22.1 14.1-12.8 11-22.5 25.5-28 41.8S38.4 214 42 230.5c1.9 8.6 4.9 16.9 9.2 24.6 4.4 8.1 10.1 15.6 16.9 22.3l13.7 13.5c5.6 5.5 10.5 11.7 14.6 18.4 4 6.6 7.3 13.7 9.6 21.1 2.3 7.4 3.8 15.1 4.3 22.8.5 7.8.1 15.7-1.4 23.5l-2.6 14.2c-1.3 7.3-1.8 14.6-1.5 21.8.3 6.9 1.4 13.8 3.2 20.4 1.8 6.4 4.2 12.6 7.3 18.5 3 5.7 6.7 11.2 10.9 16.3 4.4 5.3 9.4 10.1 14.9 14.4 5.5 4.2 11.4 7.9 17.6 10.9 6.3 3 12.9 5.3 19.6 6.9 6.9 1.6 13.9 2.4 20.9 2.4 8 0 15.9-1.1 23.7-3.1 8.1-2.2 16-5.5 23.5-9.8 7.4-4.3 15.3-7.5 23.5-9.7 8.1-2.1 16.4-3.2 24.8-3.2s16.7 1.1 24.8 3.2c8.2 2.2 16.1 5.5 23.5 9.7 7.5 4.3 15.4 7.6 23.5 9.8 7.7 2.1 15.7 3.1 23.7 3.1 7 0 14-.8 20.9-2.4 6.7-1.6 13.3-3.9 19.6-6.9 6.2-3 12.1-6.6 17.6-10.9 5.5-4.2 10.5-9.1 14.9-14.4 4.2-5 7.9-10.5 10.9-16.3 3.1-5.9 5.6-12.1 7.3-18.5 1.8-6.6 2.9-13.5 3.2-20.4.3-7.2-.2-14.5-1.5-21.8l-2.6-14.2c-1.4-7.7-1.9-15.6-1.4-23.5.5-7.7 1.9-15.4 4.3-22.8 2.3-7.4 5.6-14.5 9.6-21.1 4.1-6.7 9-12.9 14.6-18.4l13.7-13.5c6.8-6.7 12.5-14.2 16.9-22.3 4.2-7.7 7.3-16 9.2-24.6 3.6-16.5 2.6-33.9-2.9-50.2-5.5-16.3-15.1-30.8-28-41.8-6.7-5.7-14.1-10.5-22.1-14.1-8.4-3.8-17.5-6.3-26.9-7.6l-10.2-1.4c-8.2-1.1-16.2-3.2-23.8-6.3-7.5-3.1-14.6-7.1-21.1-12-6.5-4.9-12.4-10.5-17.5-16.9-5.2-6.4-9.5-13.5-12.9-21l-1.1-2.4c-4-9-9.3-17.3-15.6-24.4-6-6.8-13-12.7-20.7-17.4-7.4-4.6-15.5-8.1-24.1-10.5C312 2.2 303.4 1 294.6 1m0-1c35.1 0 70.2 18.8 87 56.4l1.1 2.4c13.5 30.2 41.7 51.3 74.5 55.6l10.2 1.4c78.6 10.4 110.9 106.7 54.4 162.4l-13.7 13.5c-22.4 22.1-32.5 53.9-26.8 84.9l2.6 14.2c11.3 62.3-38.2 112.6-93.8 112.6-15.8 0-32.1-4.1-47.7-13.1-14.8-8.5-31.3-12.8-47.8-12.8-16.5 0-33 4.3-47.8 12.8-15.6 9-31.9 13.1-47.7 13.1-55.7 0-105.2-50.4-93.8-112.6l2.6-14.2c5.6-31-4.4-62.8-26.8-84.9l-13.7-13.5c-56.5-55.7-24.2-152 54.4-162.4l10.2-1.4c32.8-4.3 61-25.4 74.5-55.6l1.1-2.4C224.4 18.8 259.5 0 294.6 0z" transform="translate(888 -180)"/></g><g id="Polygon_34-2"><path class="stx" d="M72.4 106.7c26.6-59.5 111.1-59.5 137.7 0l.8 1.9c10.7 23.9 33 40.6 59 44l8.1 1.1c62.2 8.2 87.7 84.4 43.1 128.4l-10.9 10.7c-17.8 17.5-25.7 42.7-21.2 67.2l2.1 11.3c11.5 63.2-56.3 110.9-111.9 78.7-23.4-13.5-52.2-13.5-75.5 0C47.8 482.1-20 434.4-8.5 371.2l2.1-11.3c4.5-24.5-3.5-49.7-21.2-67.2L-38.5 282c-44.7-44-19.1-120.2 43.1-128.4l8.1-1.1c26-3.4 48.3-20.1 59-44l.7-1.8z" transform="rotate(45 461.194 1475.618)"/><path class="st1" d="M141.2 63.1c-6.9 0-13.7.9-20.3 2.8-6.7 1.9-13.1 4.6-19 8.3C95.8 78 90.3 82.6 85.6 88c-5 5.7-9.1 12.1-12.3 19.3l-.8 1.9c-2.7 6-6.1 11.6-10.2 16.7-4 5-8.7 9.5-13.9 13.4-5.2 3.9-10.8 7-16.8 9.5-6.1 2.5-12.4 4.2-18.9 5l-8.1 1.1c-7.5 1-14.6 3-21.3 6-6.3 2.9-12.2 6.6-17.5 11.1-10.1 8.7-17.7 20.1-22.1 33-4.3 12.9-5.1 26.6-2.3 39.6 1.5 6.8 3.9 13.3 7.2 19.4 3.5 6.4 8 12.3 13.3 17.6L-27 292c4.4 4.4 8.3 9.3 11.6 14.6 3.2 5.2 5.8 10.9 7.6 16.7 1.9 5.9 3 11.9 3.4 18.1.4 6.2 0 12.5-1.1 18.6l-2.1 11.3c-2.1 11.4-1.6 22.6 1.3 33.3 1.4 5 3.3 10 5.8 14.6 2.4 4.5 5.3 8.8 8.6 12.8 3.5 4.2 7.4 8 11.7 11.3 4.3 3.3 9 6.2 13.9 8.6 5 2.4 10.1 4.2 15.4 5.4 5.4 1.3 11 1.9 16.5 1.9 6.3 0 12.6-.8 18.7-2.5 6.4-1.7 12.6-4.3 18.5-7.7 5.8-3.4 12.1-6 18.6-7.7 6.4-1.7 13-2.6 19.7-2.6s13.2.9 19.7 2.6c6.5 1.7 12.8 4.3 18.6 7.7 5.9 3.4 12.2 6 18.5 7.7 6.1 1.6 12.4 2.5 18.7 2.5 5.5 0 11-.6 16.5-1.9 5.3-1.2 10.5-3.1 15.4-5.4 4.9-2.3 9.6-5.2 13.9-8.6 4.3-3.4 8.3-7.2 11.7-11.3 3.3-4 6.2-8.3 8.6-12.8 2.5-4.6 4.4-9.6 5.8-14.6 2.9-10.7 3.4-21.9 1.3-33.3l-2.1-11.3c-1.1-6.1-1.5-12.4-1.1-18.6.4-6.1 1.5-12.2 3.4-18.1 1.9-5.9 4.4-11.5 7.6-16.7 3.2-5.3 7.1-10.2 11.6-14.6l10.9-10.7c5.4-5.3 9.9-11.2 13.3-17.6 3.3-6.1 5.8-12.6 7.2-19.4 2.8-13 2-26.7-2.3-39.6-4.3-12.9-11.9-24.3-22.1-33-5.3-4.5-11.1-8.3-17.5-11.1-6.6-3-13.8-5-21.3-6l-8.1-1.1c-6.5-.9-12.9-2.5-18.9-5-6-2.4-11.6-5.6-16.8-9.5-5.2-3.9-9.8-8.4-13.9-13.4-4.1-5.1-7.5-10.7-10.2-16.7l-.8-1.9c-3.2-7.1-7.3-13.6-12.3-19.3-4.7-5.4-10.2-10-16.3-13.8-5.9-3.6-12.3-6.4-19-8.3-6.1-1.6-13-2.5-19.9-2.5m0-1c27.8 0 55.5 14.9 68.8 44.6l.8 1.9c10.7 23.9 33 40.6 59 44l8.1 1.1c62.2 8.2 87.7 84.4 43.1 128.4l-10.9 10.7c-17.8 17.5-25.7 42.7-21.2 67.2l2.1 11.3c9 49.2-30.2 89.1-74.2 89.1-12.5 0-25.4-3.2-37.7-10.3-11.7-6.8-24.7-10.1-37.8-10.1-13 0-26.1 3.4-37.8 10.1-12.3 7.1-25.2 10.3-37.7 10.3-44 0-83.2-39.8-74.2-89.1l2.1-11.3c4.5-24.5-3.5-49.7-21.2-67.2l-11-10.8c-44.7-44-19.1-120.2 43.1-128.4l8.1-1.1c26-3.4 48.3-20.1 59-44l.8-1.9c13.2-29.6 41-44.5 68.7-44.5z" transform="rotate(45 461.194 1475.618)"/></g><g id="Polygon_33-2"><path class="stx" d="M82.3 225.4c26.6-59.5 111.1-59.5 137.7 0l.8 1.9c10.7 23.9 33 40.6 59 44l8.1 1.1c62.2 8.2 87.7 84.4 43.1 128.4l-10.9 10.7c-17.8 17.5-25.7 42.7-21.2 67.2L301 490c11.5 63.2-56.3 110.9-111.9 78.7-23.4-13.5-52.2-13.5-75.5 0C57.8 600.9-10 553.2 1.5 489.9l2.1-11.3C8 454.1 0 429-17.7 411.5l-10.9-10.7c-44.7-44-19.1-120.2 43.1-128.4l8.1-1.1c26-3.4 48.3-20.1 59-44l.7-1.9z" transform="rotate(90 597 630)"/><path class="st2" d="M151.2 181.8c-6.9 0-13.7.9-20.3 2.8-6.7 1.9-13.1 4.6-19 8.3-6.1 3.8-11.6 8.4-16.3 13.8-5 5.7-9.1 12.1-12.3 19.3l-.8 1.9c-2.7 6-6.1 11.6-10.2 16.7-4 5-8.7 9.5-13.9 13.4-5.2 3.9-10.8 7-16.8 9.5-6.1 2.5-12.4 4.2-18.9 5l-8.1 1.1c-7.5 1-14.6 3-21.3 6-6.3 2.9-12.2 6.6-17.5 11.1-10.1 8.7-17.7 20.1-22.1 33-4.3 12.9-5.1 26.6-2.3 39.6 1.5 6.8 3.9 13.3 7.2 19.4 3.5 6.4 8 12.3 13.3 17.6l10.9 10.7c4.4 4.4 8.3 9.3 11.6 14.6 3.2 5.2 5.8 10.9 7.6 16.7 1.9 5.9 3 11.9 3.4 18.1.4 6.2 0 12.5-1.1 18.6l-2.1 11.3C.1 501.7.6 512.9 3.5 523.6c1.4 5 3.3 10 5.8 14.6 2.4 4.5 5.3 8.8 8.6 12.8 3.5 4.2 7.4 8 11.7 11.3 4.3 3.3 9 6.2 13.9 8.6 5 2.4 10.1 4.2 15.4 5.4 5.4 1.3 11 1.9 16.5 1.9 6.3 0 12.6-.8 18.7-2.5 6.4-1.7 12.6-4.3 18.5-7.7 5.8-3.4 12.1-6 18.6-7.7 6.4-1.7 13-2.6 19.7-2.6s13.2.9 19.7 2.6c6.5 1.7 12.8 4.3 18.6 7.7 5.9 3.4 12.2 6 18.5 7.7 6.1 1.6 12.4 2.5 18.7 2.5 5.5 0 11-.6 16.5-1.9 5.3-1.2 10.5-3.1 15.4-5.4 4.9-2.3 9.6-5.2 13.9-8.6 4.3-3.4 8.3-7.2 11.7-11.3 3.3-4 6.2-8.3 8.6-12.8 2.5-4.6 4.4-9.6 5.8-14.6 2.9-10.7 3.4-21.9 1.3-33.3l-2.1-11.3c-1.1-6.1-1.5-12.4-1.1-18.6.4-6.1 1.5-12.2 3.4-18.1 1.9-5.9 4.4-11.5 7.6-16.7 3.2-5.3 7.1-10.2 11.6-14.6l10.9-10.7c5.4-5.3 9.9-11.2 13.3-17.6 3.3-6.1 5.8-12.6 7.2-19.4 2.8-13 2-26.7-2.3-39.6-4.3-12.9-11.9-24.3-22.1-33-5.3-4.5-11.1-8.3-17.5-11.1-6.6-3-13.8-5-21.3-6l-8.1-1.1c-6.5-.9-12.9-2.5-18.9-5-6-2.4-11.6-5.6-16.8-9.5-5.2-3.9-9.8-8.4-13.9-13.4-4.1-5.1-7.5-10.7-10.2-16.7l-.8-1.9c-3.2-7.1-7.3-13.6-12.3-19.3-4.7-5.4-10.2-10-16.3-13.8-5.9-3.6-12.3-6.4-19-8.3-6-1.9-12.8-2.8-19.7-2.8m0-1c27.8 0 55.5 14.9 68.8 44.6l.8 1.9c10.7 23.9 33 40.6 59 44l8.1 1.1c62.2 8.2 87.7 84.4 43.1 128.4l-10.9 10.7c-17.8 17.5-25.7 42.7-21.2 67.2L301 490c9 49.2-30.2 89.1-74.2 89.1-12.5 0-25.4-3.2-37.7-10.3-11.7-6.8-24.7-10.1-37.8-10.1s-26.1 3.4-37.8 10.1c-12.3 7.1-25.2 10.3-37.7 10.3-44 0-83.2-39.8-74.2-89.1l2.1-11.3C8 454.1 0 429-17.7 411.5l-10.9-10.7c-44.7-44-19.1-120.2 43.1-128.4l8.1-1.1c26-3.4 48.3-20.1 59-44l.8-1.9c13.2-29.7 41-44.6 68.8-44.6z" transform="rotate(90 597 630)"/></g></g></g></svg>